<svg width="332" height="332" xmlns="http://www.w3.org/2000/svg" xmlns:xlink="http://www.w3.org/1999/xlink" overflow="hidden"><defs><clipPath id="clip0"><path d="M631-1 963-1 963 331 631 331Z" fill-rule="evenodd" clip-rule="evenodd"/></clipPath></defs><g clip-path="url(#clip0)" transform="translate(-631 1)"><path d="M809.924 0 797.466 0 788.608 0.240465 779.836 0.955009 771.164 2.13246 762.609 3.76253 754.186 5.83406 745.91 8.33641 737.797 11.2588 729.864 14.5903 722.126 18.3204 714.597 22.438 707.295 26.9326 700.234 31.7933 693.431 37.0094 686.901 42.57 680.659 48.4643 674.722 54.6818 669.105 61.2113 663.824 68.0423 658.893 75.164 654.33 82.5656 650.15 90.2363 646.368 98.1651 643 106.342 652.648 109.998 656.047 101.794 659.889 93.8569 664.158 86.1998 668.836 78.8348 673.903 71.7742 679.342 65.0307 685.136 58.6164 691.266 52.5441 697.713 46.8259 704.46 41.4742 711.489 36.5018 718.782 31.9207 726.32 27.7438 734.086 23.983 742.062 20.6509 750.229 17.7603 758.569 15.3232 767.065 13.3521 775.698 11.8596 784.45 10.858 799.044 10.858 809.924 0Z" fill="#0070C0" fill-rule="evenodd"/><path d="M799.044 10.858 784.45 10.858 768.009 27.263 775.306 34.5474 799.044 10.858Z" fill="#0070C0" fill-rule="evenodd"/><path d="M935.411 135.76 928.068 143.101 962.894 177.926 962.894 165.391 962.651 156.479 962.31 152.297 951.951 152.297 935.411 135.76Z" fill="#0070C0" fill-rule="evenodd"/><path d="M855.681 10 852 19.7107 860.271 23.1288 868.273 26.9937 875.992 31.2876 883.417 35.9924 890.536 41.0895 897.335 46.5611 903.801 52.389 909.923 58.5548 915.688 65.0405 921.084 71.8278 926.097 78.8988 930.716 86.2351 934.927 93.8185 938.719 101.631 942.078 109.654 944.992 117.87 947.449 126.26 949.436 134.807 950.941 143.492 951.951 152.297 962.31 152.297 960.744 138.93 959.1 130.323 957.012 121.849 954.489 113.523 951.543 105.362 948.184 97.3812 944.423 89.5963 940.272 82.0231 935.74 74.6773 930.84 67.5747 925.581 60.7309 919.975 54.162 914.032 47.8832 907.764 41.9108 901.181 36.2603 894.294 30.9475 887.114 25.9881 879.651 21.398 871.918 17.1927 863.924 13.3881 855.681 10Z" fill="#0070C0" fill-rule="evenodd"/><path d="M819.618 295.45 785 329.998 797.461 329.998 806.318 329.757 815.09 329.043 823.762 327.865 832.317 326.235 840.741 324.164 849.016 321.661 856.016 319.14 810.474 319.14 826.917 302.735 819.618 295.45Z" fill="#0070C0" fill-rule="evenodd"/><path d="M942.278 220 938.88 228.204 935.037 236.141 930.768 243.798 926.091 251.163 921.023 258.224 915.584 264.967 909.79 271.382 903.661 277.454 897.213 283.172 890.466 288.524 883.437 293.497 876.144 298.078 868.605 302.255 860.839 306.016 852.864 309.347 844.696 312.238 836.356 314.675 827.86 316.646 819.227 318.138 810.474 319.14 856.016 319.14 865.062 315.407 872.8 311.677 880.328 307.56 887.63 303.065 894.691 298.205 901.494 292.989 908.024 287.428 914.265 281.534 920.202 275.317 925.819 268.787 931.101 261.956 936.031 254.835 940.594 247.434 944.774 239.763 948.556 231.834 951.924 223.658 942.278 220Z" fill="#0070C0" fill-rule="evenodd"/><path d="M632 152 632 164.535 632.24 173.445 632.955 182.269 634.132 190.992 635.762 199.598 637.834 208.071 640.336 216.396 643.258 224.556 646.589 232.536 650.319 240.321 654.436 247.894 658.93 255.239 663.791 262.341 669.006 269.185 674.566 275.754 680.46 282.032 686.676 288.005 693.205 293.655 700.035 298.968 707.156 303.928 714.556 308.518 722.225 312.724 730.153 316.528 738.328 319.917 741.979 310.206 733.777 306.788 725.842 302.923 718.187 298.628 710.824 293.924 703.764 288.827 697.022 283.355 690.609 277.528 684.538 271.362 678.821 264.877 673.47 258.09 668.498 251.02 663.918 243.685 659.741 236.102 655.981 228.29 652.649 220.268 649.759 212.053 647.321 203.664 645.35 195.119 643.858 186.435 642.856 177.631 657.427 177.631 632 152Z" fill="#0070C0" fill-rule="evenodd"/><path d="M657.427 177.631 642.856 177.631 659.265 194.168 666.547 186.825 657.427 177.631Z" fill="#0070C0" fill-rule="evenodd"/><path d="M897.88 151.02C885.816 148.686 885.816 148.686 885.816 148.686 878.744 147.327 872.92 142.485 870.285 135.728 867.651 128.97 868.621 121.446 872.885 115.559 880.443 105.214 880.443 105.214 880.443 105.214 881.587 103.681 881.413 101.521 880.061 100.198 863.733 83.7563 863.733 83.7563 863.733 83.7563 862.416 82.4675 860.371 82.2585 858.845 83.3035 848.688 90.2005 848.688 90.2005 848.688 90.2005 842.691 94.276 835.168 94.9727 828.547 92.0815 821.925 89.1555 817.315 83.1642 816.24 75.9885 814.299 63.2743 814.299 63.2743 814.299 63.2743 813.987 61.3933 812.392 60 810.485 60 787.363 60 787.363 60 787.363 60 785.525 60 783.931 61.3237 783.584 63.135 780.603 78.7752 780.603 78.7752 780.603 78.7752 779.251 85.7418 774.571 91.5242 768.053 94.2412 761.501 96.9582 754.117 96.2267 748.259 92.2208 735.155 83.3035 735.155 83.3035 735.155 83.3035 733.629 82.2585 731.584 82.4675 730.267 83.7563 713.939 100.198 713.939 100.198 713.939 100.198 712.587 101.521 712.413 103.681 713.557 105.214 721.115 115.594 721.115 115.594 721.115 115.594 725.379 121.446 726.349 128.97 723.715 135.728 721.08 142.485 715.256 147.327 708.184 148.686 696.12 151.02 696.12 151.02 696.12 151.02 694.317 151.368 693 152.97 693 154.816 693 178.05 693 178.05 693 178.05 693 179.966 694.387 181.568 696.259 181.882 708.912 183.832 708.912 183.832 708.912 183.832 716.053 184.912 722.051 189.545 724.928 196.198 727.805 202.851 727.112 210.41 723.056 216.436 716.192 226.643 716.192 226.643 716.192 226.643 715.152 228.175 715.36 230.23 716.643 231.554 733.005 247.961 733.005 247.961 733.005 247.961 734.323 249.319 736.472 249.493 737.997 248.344 748.328 240.75 748.328 240.75 748.328 240.75 754.152 236.466 761.64 235.49 768.365 238.138 775.091 240.785 779.909 246.637 781.261 253.743 783.584 265.865 783.584 265.865 783.584 265.865 783.931 267.676 785.525 269 787.363 269 810.485 269 810.485 269 810.485 269 812.392 269 813.987 267.607 814.299 265.726 815.651 256.773 815.651 256.773 815.651 256.773 816.795 249.458 821.509 243.363 828.339 240.541 835.168 237.72 842.795 238.625 848.757 243.014 856.003 248.344 856.003 248.344 856.003 248.344 857.528 249.493 859.677 249.319 860.995 247.961 877.357 231.554 877.357 231.554 877.357 231.554 878.64 230.23 878.848 228.175 877.808 226.643 870.944 216.436 870.944 216.436 870.944 216.436 866.888 210.41 866.195 202.851 869.072 196.198 871.949 189.545 877.947 184.912 885.088 183.832 897.741 181.882 897.741 181.882 897.741 181.882 899.613 181.568 901 179.966 901 178.05 901 154.816 901 154.816 901 154.816 901 152.97 899.683 151.368 897.88 151.02ZM893.304 174.741C883.909 176.169 883.909 176.169 883.909 176.169 874.168 177.702 865.952 184.007 862 193.133 858.048 202.225 859.019 212.57 864.565 220.791 869.661 228.35 869.661 228.35 869.661 228.35 857.909 240.158 857.909 240.158 857.909 240.158 853.299 236.779 853.299 236.779 853.299 236.779 845.152 230.753 834.717 229.499 825.392 233.4 816.067 237.267 809.584 245.592 808.024 255.624 807.192 261.267 807.192 261.267 807.192 261.267 790.552 261.267 790.552 261.267 790.552 261.267 788.819 252.28 788.819 252.28 788.819 252.28 786.981 242.527 780.36 234.55 771.173 230.927 761.987 227.304 751.725 228.663 743.752 234.515 736.091 240.158 736.091 240.158 736.091 240.158 724.339 228.35 724.339 228.35 724.339 228.35 729.435 220.791 729.435 220.791 729.435 220.791 734.981 212.57 735.952 202.225 732 193.133 728.048 184.007 719.832 177.702 710.091 176.169 700.696 174.741 700.696 174.741 700.696 174.741 700.696 158.021 700.696 158.021 700.696 158.021 709.64 156.314 709.64 156.314 709.64 156.314 719.347 154.433 727.285 147.78 730.891 138.549 734.496 129.318 733.179 119.008 727.32 110.996 721.704 103.298 721.704 103.298 721.704 103.298 733.456 91.4893 733.456 91.4893 733.456 91.4893 743.96 98.6302 743.96 98.6302 743.96 98.6302 751.968 104.099 762.056 105.109 771 101.382 779.909 97.6897 786.323 89.7825 788.16 80.2382 790.552 67.733 790.552 67.733 790.552 67.733 807.192 67.733 807.192 67.733 807.192 67.733 808.613 77.1728 808.613 77.1728 808.613 77.1728 810.139 86.961 816.413 95.2165 825.496 99.1875 834.544 103.159 844.84 102.183 853.021 96.6098 860.544 91.4893 860.544 91.4893 860.544 91.4893 872.296 103.333 872.296 103.333 872.296 103.333 866.68 110.996 866.68 110.996 866.68 110.996 860.821 119.008 859.504 129.318 863.109 138.549 866.715 147.78 874.688 154.433 884.395 156.314 893.304 158.021 893.304 158.021 893.304 158.021L893.304 174.741Z" fill="#0070C0" fill-rule="evenodd"/><path d="M797.517 124C775.158 124 757 142.382 757 165.018 757 187.618 775.158 206 797.517 206 819.842 206 838 187.618 838 165.018 838 142.382 819.842 124 797.517 124ZM797.517 198.197C779.429 198.197 764.708 183.294 764.708 165.018 764.708 146.706 779.429 131.803 797.517 131.803 815.571 131.803 830.292 146.706 830.292 165.018 830.292 183.294 815.571 198.197 797.517 198.197Z" fill="#0070C0" fill-rule="evenodd"/><path d="M797.017 143C785.444 143 776 152.669 776 164.518 776 176.331 785.444 186 797.017 186 808.59 186 818 176.331 818 164.518 818 152.669 808.59 143 797.017 143ZM797.017 178.159C789.634 178.159 783.658 172.042 783.658 164.518 783.658 156.958 789.634 150.841 797.017 150.841 804.366 150.841 810.342 156.958 810.342 164.518 810.342 172.042 804.366 178.159 797.017 178.159Z" fill="#0070C0" fill-rule="evenodd"/></g></svg>