<svg width="593" height="437" xmlns="http://www.w3.org/2000/svg" xmlns:xlink="http://www.w3.org/1999/xlink" overflow="hidden"><defs><clipPath id="clip0"><path d="M313 13 906 13 906 450 313 450Z" fill-rule="evenodd" clip-rule="evenodd"/></clipPath></defs><g clip-path="url(#clip0)" transform="translate(-313 -13)"><path d="M807.176 304.866C803.128 304.866 799.852 308.393 799.852 312.747L799.852 328.33 329.148 328.33 329.148 38.4726C329.148 33.9448 332.57 30.2627 336.774 30.2627L444.643 30.2627C448.686 30.2627 451.967 26.7366 451.967 22.3815 451.967 18.0302 448.686 14.5001 444.643 14.5001L336.774 14.5001C324.491 14.5001 314.5 25.2548 314.5 38.4726L314.5 376.907C314.5 387.169 322.259 395.518 331.796 395.518L509.294 395.518 509.294 433.71 479.051 433.71C475.007 433.71 471.727 437.24 471.727 441.592 471.727 445.946 475.007 449.473 479.051 449.473L649.949 449.473C653.997 449.473 657.274 445.946 657.274 441.592 657.274 437.24 653.997 433.71 649.949 433.71L619.706 433.71 619.706 395.518 797.204 395.518C806.741 395.518 814.5 387.169 814.5 376.907L814.5 312.747C814.5 308.393 811.224 304.866 807.176 304.866ZM605.058 433.71 523.942 433.71 523.942 395.518 605.058 395.518ZM797.204 379.756 331.796 379.756C330.335 379.756 329.148 378.479 329.148 376.907L329.148 344.093 799.852 344.093 799.852 376.907C799.852 378.479 798.665 379.756 797.204 379.756Z" stroke="#0070C0" stroke-miterlimit="8" fill="#0070C0" fill-rule="evenodd"/><path d="M792.317 16.5001 539.818 16.5001C535.778 16.5001 532.5 20.0417 532.5 24.4071 532.5 28.7764 535.778 32.314 539.818 32.314L792.32 32.314C796.52 32.314 799.939 36.008 799.939 40.5505L799.939 281.285C799.939 285.65 803.217 289.192 807.258 289.192 811.302 289.192 814.576 285.65 814.576 281.285L814.576 40.5505C814.576 27.2898 804.594 16.5001 792.317 16.5001Z" stroke="#0070C0" stroke-miterlimit="8" fill="#0070C0" fill-rule="evenodd"/><path d="M476.837 32.5001 507.981 32.5001C512.031 32.5001 515.318 28.9209 515.318 24.5001 515.318 20.0833 512.031 16.5001 507.981 16.5001L476.837 16.5001C472.786 16.5001 469.5 20.0833 469.5 24.5001 469.5 28.9209 472.786 32.5001 476.837 32.5001Z" stroke="#0070C0" stroke-miterlimit="8" fill="#0070C0" fill-rule="evenodd"/><path d="M681.634 301.156 567.537 301.156 567.537 89.6721 733.463 89.6721 733.463 162.803 749 162.803 749 75 552 75 552 316 681.634 316 681.634 301.156Z" fill="#0070C0" fill-rule="evenodd"/><path d="M659 206C583 206 583 206 583 206 583 222 583 222 583 222 654.478 222 654.478 222 654.478 222 655.499 216.473 656.958 211.091 659 206Z" fill="#0070C0" fill-rule="evenodd"/><path d="M653.127 236.218C653.127 234.764 653.127 233.455 653.273 232 583 232 583 232 583 232 583 248 583 248 583 248 654 248 654 248 654 248 653.418 244.218 653.127 240.145 653.127 236.218Z" fill="#0070C0" fill-rule="evenodd"/><path d="M593 274 609 274 609 266.402 609 259 593 259 593 266.402 593 274Z" fill="#0070C0" fill-rule="evenodd"/><path d="M635 274 651 274 651 266.402 651 259 635 259 635 266.402 635 274Z" fill="#0070C0" fill-rule="evenodd"/><rect x="589" y="144" width="31" height="36" fill="#0070C0"/><rect x="628" y="124" width="31" height="56" fill="#0070C0"/><path d="M698 104C666 104 666 104 666 104 666 180 666 180 666 180 674.889 180 674.889 180 674.889 180 681.556 173.051 689.407 167.261 698 162.918 698 104 698 104 698 104Z" fill="#0070C0" fill-rule="evenodd"/><path d="M672 253.419C672 307.65 716.097 351.655 770.483 351.655 790.878 351.655 810.538 345.447 827.258 333.578 829.279 332.117 829.279 332.117 829.279 332.117 881.461 384.522 881.461 384.522 881.461 384.522 886.789 390 896.159 390 901.488 384.522 907 379.044 907 370.097 901.488 364.619 901.488 364.619 901.488 364.619 901.488 364.619 849.306 312.214 849.306 312.214 849.306 312.214 850.593 310.206 850.593 310.206 850.593 310.206 862.536 293.59 868.783 273.869 868.783 253.419 868.783 199.188 824.686 155 770.483 155 716.097 155 672 199.188 672 253.419ZM840.671 253.419C840.671 268.026 836.077 281.904 827.625 293.955 820.276 303.815 820.276 303.815 820.276 303.815 810.905 310.571 810.905 310.571 810.905 310.571 798.962 318.97 784.998 323.535 770.483 323.535 731.715 323.535 700.112 292.129 700.112 253.419 700.112 214.709 731.715 183.12 770.483 183.12 809.068 183.12 840.671 214.709 840.671 253.419Z" fill="#0070C0" fill-rule="evenodd"/><path d="M457.448 75.5001 430.552 75.5001C427.273 75.5001 424.604 77.7414 424.604 80.4967L424.604 92.0105 399.519 92.0105C396.239 92.0105 393.571 94.2519 393.571 97.0071L393.571 131.983 388.379 131.983C386.237 131.983 384.5 133.441 384.5 135.242 384.5 137.041 386.237 138.5 388.379 138.5L499.621 138.5C501.764 138.5 503.5 137.041 503.5 135.242 503.5 133.441 501.764 131.983 499.621 131.983L494.429 131.983 494.429 113.518C494.429 110.762 491.761 108.521 488.481 108.521L463.396 108.521 463.396 80.4967C463.396 77.7414 460.728 75.5001 457.448 75.5001ZM401.329 98.5277 424.604 98.5277 424.604 131.983 401.329 131.983ZM432.363 82.0173 455.637 82.0173 455.637 131.983 432.363 131.983ZM486.671 115.038 486.671 131.983 463.396 131.983 463.396 115.038Z" stroke="#0070C0" stroke-miterlimit="8" fill="#0070C0" fill-rule="evenodd"/><path d="M486.65 166.561 468.523 166.561 460.289 148.59C459.707 147.32 458.281 146.498 456.669 146.5 455.072 146.512 453.648 147.366 453.093 148.644L441.84 174.551 433.975 155.519C433.472 154.301 432.179 153.447 430.671 153.338 429.164 153.227 427.72 153.883 426.982 155.011L419.43 166.561 401.35 166.561C399.224 166.561 397.5 168.032 397.5 169.847 397.5 171.663 399.224 173.135 401.35 173.135L421.689 173.135C423.084 173.135 424.371 172.49 425.051 171.45L429.549 164.571 438.119 185.306C438.658 186.612 440.097 187.489 441.719 187.5L441.75 187.5C443.358 187.5 444.799 186.645 445.36 185.356L456.799 159.02 462.309 171.046C462.886 172.305 464.309 173.136 465.894 173.136L486.65 173.136C488.777 173.136 490.5 171.664 490.5 169.848 490.5 168.032 488.777 166.561 486.65 166.561Z" stroke="#0070C0" stroke-miterlimit="8" fill="#0070C0" fill-rule="evenodd"/><path d="M492 291.189C492 293.995 490.066 296 487.359 296 487.359 296 487.359 296 487.359 296 397.641 296 397.641 296 397.641 296 397.641 296 397.641 296 397.641 296 397.641 296 397.641 296 397.641 296 394.934 296 393 293.995 393 291.189 393 290.387 393.387 289.184 393.773 288.382 393.773 288.382 393.773 288.382 393.773 288.382 438.633 213.005 438.633 213.005 438.633 213.005 438.633 213.005 438.633 213.005 438.633 213.005 439.406 211.802 440.953 211 442.5 211 444.047 211 445.594 211.802 446.367 213.406 446.367 213.406 446.367 213.406 446.367 213.406 491.227 288.783 491.227 288.783 491.227 288.783 491.227 288.783 491.227 288.783 491.227 288.783 491.613 289.585 492 290.387 492 291.189M448.688 238.264C448.688 234.656 445.98 231.849 442.5 231.849 439.02 231.849 436.313 234.656 436.313 238.264 436.313 262.321 436.313 262.321 436.313 262.321 436.313 265.929 439.02 268.736 442.5 268.736 445.98 268.736 448.688 265.929 448.688 262.321L448.688 238.264ZM442.5 273.547C439.02 273.547 436.313 276.354 436.313 279.962 436.313 283.571 439.02 286.377 442.5 286.377 445.98 286.377 448.688 283.571 448.688 279.962 448.688 276.354 445.98 273.547 442.5 273.547" fill="#0070C0" fill-rule="evenodd"/><path d="M705.5 253.5C705.5 217.049 734.825 187.5 771 187.5 807.175 187.5 836.5 217.049 836.5 253.5 836.5 289.951 807.175 319.5 771 319.5 734.825 319.5 705.5 289.951 705.5 253.5Z" stroke="#FFFFFF" stroke-width="3" stroke-linejoin="round" stroke-miterlimit="10" fill="#FFFFFF" fill-rule="evenodd"/><path d="M822 278.189C822 280.995 820.086 283 817.406 283 817.406 283 817.406 283 817.406 283 728.594 283 728.594 283 728.594 283 728.594 283 728.594 283 728.594 283 728.594 283 728.594 283 728.594 283 725.914 283 724 280.995 724 278.189 724 277.387 724.383 276.184 724.766 275.382 724.766 275.382 724.766 275.382 724.766 275.382 769.172 200.005 769.172 200.005 769.172 200.005 769.172 200.005 769.172 200.005 769.172 200.005 769.938 198.802 771.469 198 773 198 774.531 198 776.063 198.802 776.828 200.406 776.828 200.406 776.828 200.406 776.828 200.406 821.234 275.783 821.234 275.783 821.234 275.783 821.234 275.783 821.234 275.783 821.234 275.783 821.617 276.585 822 277.387 822 278.189M779.125 225.264C779.125 221.656 776.445 218.849 773 218.849 769.555 218.849 766.875 221.656 766.875 225.264 766.875 249.321 766.875 249.321 766.875 249.321 766.875 252.929 769.555 255.736 773 255.736 776.445 255.736 779.125 252.929 779.125 249.321L779.125 225.264ZM773 260.547C769.555 260.547 766.875 263.354 766.875 266.962 766.875 270.571 769.555 273.377 773 273.377 776.445 273.377 779.125 270.571 779.125 266.962 779.125 263.354 776.445 260.547 773 260.547" fill="#0070C0" fill-rule="evenodd"/></g></svg>